<svg id="Layer_1" data-name="Layer 1" xmlns="http://www.w3.org/2000/svg" viewBox="0 0 340.53 264.89"><defs><style>.cls-1{fill:#acacac;}</style></defs><title>available_app_store</title><g id="_Группа_" data-name="&lt;Группа&gt;"><path id="_Составной_контур_" data-name="&lt;Составной контур&gt;" class="cls-1" d="M61.94,263.38V245.85c0-6.6-4.2-11-11-11.11a10.83,10.83,0,0,0-9.82,5,10.25,10.25,0,0,0-9.24-5,9.24,9.24,0,0,0-8.18,4.15v-3.45H17.63v27.94h6.14V247.9c0-4.86,2.69-7.43,6.84-7.43s6.08,2.63,6.08,7.37v15.55h6.14V247.9c0-4.86,2.81-7.43,6.84-7.43s6.14,2.63,6.14,7.37v15.55Zm90.84-27.94h-9.94V227h-6.14v8.48H131V241h5.67v12.74c0,6.49,2.51,10.35,9.7,10.35a14.24,14.24,0,0,0,7.6-2.16l-1.75-5.2a11.22,11.22,0,0,1-5.38,1.58c-3,0-4-1.87-4-4.67V241h9.94Zm51.85-.7a8.24,8.24,0,0,0-7.37,4.09v-3.39h-6v27.94h6.07V247.72c0-4.62,2-7.19,6-7.19a10,10,0,0,1,3.8.7L209,235.5a13.08,13.08,0,0,0-4.33-.76m-78.39,2.92a20.84,20.84,0,0,0-11.39-2.92c-7.07,0-11.63,3.39-11.63,8.94,0,4.56,3.39,7.37,9.64,8.24l2.87.41c3.33.47,4.9,1.34,4.9,2.92,0,2.16-2.22,3.39-6.37,3.39a14.9,14.9,0,0,1-9.3-2.92l-2.86,4.73a20.17,20.17,0,0,0,12.1,3.63c8.07,0,12.75-3.8,12.75-9.11,0-4.91-3.69-7.48-9.77-8.36l-2.86-.41c-2.63-.35-4.73-.87-4.73-2.74,0-2,2-3.28,5.32-3.28a18,18,0,0,1,8.71,2.4Zm162.86-2.92a8.24,8.24,0,0,0-7.36,4.09v-3.39h-6v27.94h6.07V247.72c0-4.62,2-7.19,6-7.19a10,10,0,0,1,3.8.7l1.86-5.73a13,13,0,0,0-4.33-.76m-78.33,14.67c0,8.48,5.9,14.67,14.9,14.67a14.6,14.6,0,0,0,10.05-3.33l-2.92-4.91a12.28,12.28,0,0,1-7.31,2.52c-4.86-.06-8.42-3.56-8.42-8.94s3.56-8.88,8.42-8.94a12.28,12.28,0,0,1,7.31,2.52l2.92-4.91a14.64,14.64,0,0,0-10.05-3.33c-9,0-14.9,6.2-14.9,14.67m56.93,0v-14h-6.08v3.39a10.58,10.58,0,0,0-8.82-4.09c-7.84,0-14,6.14-14,14.67s6.14,14.67,14,14.67a10.6,10.6,0,0,0,8.82-4.09v3.39h6.08Zm-22.62,0c0-4.91,3.22-8.94,8.48-8.94,5,0,8.41,3.86,8.41,8.94s-3.39,8.94-8.41,8.94c-5.26,0-8.48-4-8.48-8.94m-73.36-14.67c-8.18,0-13.91,6-13.91,14.67,0,8.88,6,14.67,14.33,14.67a17,17,0,0,0,11.45-3.92l-3-4.5a13.31,13.31,0,0,1-8.13,2.92c-3.92,0-7.48-1.81-8.36-6.84h20.75c.06-.76.12-1.52.12-2.34-.05-8.71-5.43-14.67-13.27-14.67m-.12,5.43c3.92,0,6.43,2.46,7.07,6.78h-14.5c.64-4,3.09-6.78,7.42-6.78m152.51,9.24V224.22H318v14.62a10.58,10.58,0,0,0-8.82-4.09c-7.84,0-14,6.14-14,14.67s6.14,14.67,14,14.67A10.6,10.6,0,0,0,318,260v3.39h6.08Zm-22.62,0c0-4.91,3.22-8.94,8.48-8.94,5,0,8.42,3.86,8.42,8.94s-3.39,8.94-8.42,8.94c-5.26,0-8.48-4-8.48-8.94m-205.29,0v-14H90.12v3.39a10.61,10.61,0,0,0-8.83-4.09c-7.84,0-14,6.14-14,14.67s6.14,14.67,14,14.67A10.62,10.62,0,0,0,90.12,260v3.39H96.2Zm-22.62,0c0-4.91,3.21-8.94,8.48-8.94,5,0,8.41,3.86,8.41,8.94s-3.39,8.94-8.41,8.94c-5.26,0-8.48-4-8.48-8.94m260.67,9.92a2.75,2.75,0,0,1,1.1.22,2.86,2.86,0,0,1,.9.59,3,3,0,0,1,.61.88,2.76,2.76,0,0,1,.22,1.08,2.7,2.7,0,0,1-.22,1.07,2.88,2.88,0,0,1-.61.88,3,3,0,0,1-.9.6,2.75,2.75,0,0,1-1.1.22,2.8,2.8,0,0,1-1.12-.22,2.84,2.84,0,0,1-.9-.6,2.77,2.77,0,0,1-.61-.88,2.71,2.71,0,0,1-.22-1.07,2.77,2.77,0,0,1,.22-1.08,2.85,2.85,0,0,1,.61-.88,2.72,2.72,0,0,1,.9-.59,2.8,2.8,0,0,1,1.12-.22m0,4.94a2,2,0,0,0,.84-.17,2.12,2.12,0,0,0,.68-.46,2.17,2.17,0,0,0,0-3.06,2.23,2.23,0,0,0-.68-.46,2.13,2.13,0,0,0-.84-.16,2.23,2.23,0,0,0-.86.16,2.16,2.16,0,0,0-.69,3.52,2.07,2.07,0,0,0,.69.46,2.12,2.12,0,0,0,.86.17m.16-3.46a1.21,1.21,0,0,1,.77.22.75.75,0,0,1,.27.61.72.72,0,0,1-.21.53,1.06,1.06,0,0,1-.61.25l.84,1h-.66l-.78-1h-.25v1h-.55v-2.58Zm-.64.48V262h.63a.66.66,0,0,0,.35-.08.3.3,0,0,0,.13-.27.29.29,0,0,0-.13-.26.66.66,0,0,0-.35-.08Z"/><rect id="_Контур_" data-name="&lt;Контур&gt;" class="cls-1" x="124.22" y="22.5" width="92.08" height="165.47"/><path id="_Контур_2" data-name="&lt;Контур&gt;" class="cls-1" d="M130.07,105.23A105.06,105.06,0,0,1,170.26,22.5a105.24,105.24,0,1,0,0,165.47,105.06,105.06,0,0,1-40.19-82.73"/><path id="_Составной_контур_2" data-name="&lt;Составной контур&gt;" class="cls-1" d="M340.53,105.23A105.23,105.23,0,0,1,170.27,188a105.26,105.26,0,0,0,0-165.47,105.23,105.23,0,0,1,170.26,82.73"/></g></svg>