<svg id="Layer_1" data-name="Layer 1" xmlns="http://www.w3.org/2000/svg" xmlns:xlink="http://www.w3.org/1999/xlink" viewBox="0 0 258.27 83.41"><defs><style>.cls-1{fill:#acacac;}.cls-2{clip-path:url(#clip-path);}</style><clipPath id="clip-path"><path class="cls-1" d="M76.14,1.48,54.42,56.38,45.63,9.7A9.73,9.73,0,0,0,36,1.48H.49L0,3.81C7.29,5.4,15.57,8,20.59,10.68c3.07,1.67,3.95,3.12,5,7.09L42.19,82.15H64.24L98.06,1.48Zm30.88,0L89.75,82.15h20.87L127.88,1.48Zm119.65,21.8L233,53.56H215.68Zm-3.06-21.8a9.5,9.5,0,0,0-8.88,5.92L183.41,82.15h21.91l4.35-12.05h26.77L239,82.15h19.3L241.42,1.48Zm-90,25.19c-.14,11.62,10.36,18.09,18.27,22,8.13,4,10.85,6.49,10.82,10-.06,5.41-6.49,7.8-12.49,7.89-10.49.16-16.58-2.83-21.43-5.1L125,79.12c4.87,2.24,13.87,4.19,23.21,4.29,21.93,0,36.26-10.83,36.33-27.6.09-21.29-29.44-22.46-29.24-32,.07-2.89,2.82-6,8.85-6.76a39.41,39.41,0,0,1,20.57,3.61l3.67-17.11A56.1,56.1,0,0,0,168.83,0c-20.63,0-35.14,11-35.26,26.66"/></clipPath></defs><title>available_app_store</title><path class="cls-1" d="M76.14,1.48,54.42,56.38,45.63,9.7A9.73,9.73,0,0,0,36,1.48H.49L0,3.81C7.29,5.4,15.57,8,20.59,10.68c3.07,1.67,3.95,3.12,5,7.09L42.19,82.15H64.24L98.06,1.48Zm30.88,0L89.75,82.15h20.87L127.88,1.48Zm119.65,21.8L233,53.56H215.68Zm-3.06-21.8a9.5,9.5,0,0,0-8.88,5.92L183.41,82.15h21.91l4.35-12.05h26.77L239,82.15h19.3L241.42,1.48Zm-90,25.19c-.14,11.62,10.36,18.09,18.27,22,8.13,4,10.85,6.49,10.82,10-.06,5.41-6.49,7.8-12.49,7.89-10.49.16-16.58-2.83-21.43-5.1L125,79.12c4.87,2.24,13.87,4.19,23.21,4.29,21.93,0,36.26-10.83,36.33-27.6.09-21.29-29.44-22.46-29.24-32,.07-2.89,2.82-6,8.85-6.76a39.41,39.41,0,0,1,20.57,3.61l3.67-17.11A56.1,56.1,0,0,0,168.83,0c-20.63,0-35.14,11-35.26,26.66"/><g class="cls-2"><rect id="_Контур_" data-name="&lt;Контур&gt;" class="cls-1" width="258.27" height="83.41"/></g></svg>